<mxfile host="app.diagrams.net" agent="Mozilla/5.0 (Windows NT 10.0; Win64; x64) AppleWebKit/537.36 (KHTML, like Gecko) Chrome/128.0.0.0 Safari/537.36 Edg/128.0.0.0" version="24.7.12">
  <diagram name="第 1 页" id="aJODwp7F5fUqtV2pzHGX">
    <mxGraphModel dx="2066" dy="1151" grid="1" gridSize="13" guides="1" tooltips="1" connect="1" arrows="1" fold="1" page="1" pageScale="1" pageWidth="827" pageHeight="1169" math="0" shadow="0">
      <root>
        <mxCell id="0" />
        <mxCell id="1" parent="0" />
        <mxCell id="Drvu7nfmIAvdVMm34D0m-56" value="&lt;p style=&quot;line-height: 290%;&quot;&gt;内外网识别流程图&lt;/p&gt;" style="swimlane;childLayout=stackLayout;resizeParent=1;resizeParentMax=0;startSize=20;html=1;fillColor=#dae8fc;strokeColor=#6c8ebf;" vertex="1" parent="1">
          <mxGeometry x="247" y="85" width="1120" height="1200" as="geometry" />
        </mxCell>
        <mxCell id="Drvu7nfmIAvdVMm34D0m-57" value="PC" style="swimlane;startSize=20;html=1;fillColor=#f5f5f5;fontColor=#333333;strokeColor=#666666;" vertex="1" parent="Drvu7nfmIAvdVMm34D0m-56">
          <mxGeometry y="20" width="280" height="1180" as="geometry" />
        </mxCell>
        <mxCell id="Drvu7nfmIAvdVMm34D0m-100" value="" style="edgeStyle=orthogonalEdgeStyle;rounded=0;orthogonalLoop=1;jettySize=auto;html=1;" edge="1" parent="Drvu7nfmIAvdVMm34D0m-57" source="Drvu7nfmIAvdVMm34D0m-97">
          <mxGeometry relative="1" as="geometry">
            <mxPoint x="131" y="649" as="targetPoint" />
          </mxGeometry>
        </mxCell>
        <mxCell id="Drvu7nfmIAvdVMm34D0m-97" value="开始" style="rounded=1;whiteSpace=wrap;html=1;" vertex="1" parent="Drvu7nfmIAvdVMm34D0m-57">
          <mxGeometry x="67" y="545" width="128" height="46" as="geometry" />
        </mxCell>
        <mxCell id="Drvu7nfmIAvdVMm34D0m-101" value="GetRiskOp定时获取风控OP" style="rounded=0;whiteSpace=wrap;html=1;" vertex="1" parent="Drvu7nfmIAvdVMm34D0m-57">
          <mxGeometry x="39" y="649" width="184" height="53" as="geometry" />
        </mxCell>
        <mxCell id="Drvu7nfmIAvdVMm34D0m-150" style="edgeStyle=orthogonalEdgeStyle;rounded=0;orthogonalLoop=1;jettySize=auto;html=1;entryX=0.5;entryY=0;entryDx=0;entryDy=0;" edge="1" parent="Drvu7nfmIAvdVMm34D0m-57" source="Drvu7nfmIAvdVMm34D0m-144" target="Drvu7nfmIAvdVMm34D0m-149">
          <mxGeometry relative="1" as="geometry" />
        </mxCell>
        <mxCell id="Drvu7nfmIAvdVMm34D0m-144" value="重新拉取接入点以及策略配置" style="rounded=0;whiteSpace=wrap;html=1;" vertex="1" parent="Drvu7nfmIAvdVMm34D0m-57">
          <mxGeometry x="39" y="868.75" width="184" height="53" as="geometry" />
        </mxCell>
        <mxCell id="Drvu7nfmIAvdVMm34D0m-149" value="开始" style="rounded=1;whiteSpace=wrap;html=1;" vertex="1" parent="Drvu7nfmIAvdVMm34D0m-57">
          <mxGeometry x="67" y="1064" width="128" height="46" as="geometry" />
        </mxCell>
        <mxCell id="Drvu7nfmIAvdVMm34D0m-58" value="auth_server" style="swimlane;startSize=20;html=1;fillColor=#f5f5f5;strokeColor=#666666;fontColor=#333333;" vertex="1" parent="Drvu7nfmIAvdVMm34D0m-56">
          <mxGeometry x="280" y="20" width="280" height="1180" as="geometry" />
        </mxCell>
        <mxCell id="Drvu7nfmIAvdVMm34D0m-106" value="处理Pc上报信息" style="rounded=0;whiteSpace=wrap;html=1;" vertex="1" parent="Drvu7nfmIAvdVMm34D0m-58">
          <mxGeometry x="65" y="649" width="150" height="53" as="geometry" />
        </mxCell>
        <mxCell id="Drvu7nfmIAvdVMm34D0m-143" value="" style="edgeStyle=orthogonalEdgeStyle;rounded=0;orthogonalLoop=1;jettySize=auto;html=1;" edge="1" parent="Drvu7nfmIAvdVMm34D0m-58" source="Drvu7nfmIAvdVMm34D0m-138" target="Drvu7nfmIAvdVMm34D0m-142">
          <mxGeometry relative="1" as="geometry" />
        </mxCell>
        <mxCell id="Drvu7nfmIAvdVMm34D0m-138" value="根据模式获取网络环境ID" style="rounded=0;whiteSpace=wrap;html=1;" vertex="1" parent="Drvu7nfmIAvdVMm34D0m-58">
          <mxGeometry x="65" y="753" width="150" height="53" as="geometry" />
        </mxCell>
        <mxCell id="Drvu7nfmIAvdVMm34D0m-141" style="edgeStyle=orthogonalEdgeStyle;rounded=0;orthogonalLoop=1;jettySize=auto;html=1;entryX=1;entryY=0.75;entryDx=0;entryDy=0;" edge="1" parent="Drvu7nfmIAvdVMm34D0m-58">
          <mxGeometry relative="1" as="geometry">
            <mxPoint x="420" y="688" as="sourcePoint" />
            <mxPoint x="215" y="778.75" as="targetPoint" />
            <Array as="points">
              <mxPoint x="420" y="779" />
            </Array>
          </mxGeometry>
        </mxCell>
        <mxCell id="Drvu7nfmIAvdVMm34D0m-142" value="判断网络环境id是否变化" style="rhombus;whiteSpace=wrap;html=1;rounded=0;" vertex="1" parent="Drvu7nfmIAvdVMm34D0m-58">
          <mxGeometry x="53.5" y="857" width="173" height="76.5" as="geometry" />
        </mxCell>
        <mxCell id="Drvu7nfmIAvdVMm34D0m-59" value="config_server" style="swimlane;startSize=20;html=1;fillColor=#f5f5f5;strokeColor=#666666;fontColor=#333333;" vertex="1" parent="Drvu7nfmIAvdVMm34D0m-56">
          <mxGeometry x="560" y="20" width="280" height="1180" as="geometry" />
        </mxCell>
        <mxCell id="Drvu7nfmIAvdVMm34D0m-75" value="" style="edgeStyle=orthogonalEdgeStyle;rounded=0;orthogonalLoop=1;jettySize=auto;html=1;" edge="1" parent="Drvu7nfmIAvdVMm34D0m-59" source="Drvu7nfmIAvdVMm34D0m-72" target="Drvu7nfmIAvdVMm34D0m-74">
          <mxGeometry relative="1" as="geometry" />
        </mxCell>
        <mxCell id="Drvu7nfmIAvdVMm34D0m-72" value="检验配置信息" style="whiteSpace=wrap;html=1;rounded=0;" vertex="1" parent="Drvu7nfmIAvdVMm34D0m-59">
          <mxGeometry x="77" y="171" width="120" height="60" as="geometry" />
        </mxCell>
        <mxCell id="Drvu7nfmIAvdVMm34D0m-77" value="" style="edgeStyle=orthogonalEdgeStyle;rounded=0;orthogonalLoop=1;jettySize=auto;html=1;" edge="1" parent="Drvu7nfmIAvdVMm34D0m-59" source="Drvu7nfmIAvdVMm34D0m-74" target="Drvu7nfmIAvdVMm34D0m-76">
          <mxGeometry relative="1" as="geometry" />
        </mxCell>
        <mxCell id="Drvu7nfmIAvdVMm34D0m-78" value="正确" style="edgeLabel;html=1;align=center;verticalAlign=middle;resizable=0;points=[];" vertex="1" connectable="0" parent="Drvu7nfmIAvdVMm34D0m-77">
          <mxGeometry x="-0.0909" y="1" relative="1" as="geometry">
            <mxPoint as="offset" />
          </mxGeometry>
        </mxCell>
        <mxCell id="Drvu7nfmIAvdVMm34D0m-74" value="信息正确" style="rhombus;whiteSpace=wrap;html=1;rounded=0;" vertex="1" parent="Drvu7nfmIAvdVMm34D0m-59">
          <mxGeometry x="62" y="272" width="150" height="76" as="geometry" />
        </mxCell>
        <mxCell id="Drvu7nfmIAvdVMm34D0m-91" value="" style="edgeStyle=orthogonalEdgeStyle;rounded=0;orthogonalLoop=1;jettySize=auto;html=1;" edge="1" parent="Drvu7nfmIAvdVMm34D0m-59" source="Drvu7nfmIAvdVMm34D0m-76" target="Drvu7nfmIAvdVMm34D0m-90">
          <mxGeometry relative="1" as="geometry" />
        </mxCell>
        <mxCell id="Drvu7nfmIAvdVMm34D0m-76" value="保存配置信息" style="whiteSpace=wrap;html=1;rounded=0;" vertex="1" parent="Drvu7nfmIAvdVMm34D0m-59">
          <mxGeometry x="76" y="415" width="120" height="60" as="geometry" />
        </mxCell>
        <mxCell id="Drvu7nfmIAvdVMm34D0m-90" value="更新缓存" style="whiteSpace=wrap;html=1;rounded=0;" vertex="1" parent="Drvu7nfmIAvdVMm34D0m-59">
          <mxGeometry x="76" y="519" width="120" height="60" as="geometry" />
        </mxCell>
        <mxCell id="Drvu7nfmIAvdVMm34D0m-134" value="获取网络环境模式信息" style="rounded=0;whiteSpace=wrap;html=1;" vertex="1" parent="Drvu7nfmIAvdVMm34D0m-59">
          <mxGeometry x="48" y="649" width="184" height="53" as="geometry" />
        </mxCell>
        <mxCell id="Drvu7nfmIAvdVMm34D0m-60" value="web_dacs" style="swimlane;startSize=20;html=1;fillColor=#f5f5f5;fontColor=#333333;strokeColor=#666666;" vertex="1" parent="Drvu7nfmIAvdVMm34D0m-56">
          <mxGeometry x="840" y="20" width="280" height="1180" as="geometry" />
        </mxCell>
        <mxCell id="Drvu7nfmIAvdVMm34D0m-69" value="" style="edgeStyle=orthogonalEdgeStyle;rounded=0;orthogonalLoop=1;jettySize=auto;html=1;entryX=0.5;entryY=0;entryDx=0;entryDy=0;" edge="1" parent="Drvu7nfmIAvdVMm34D0m-60" source="Drvu7nfmIAvdVMm34D0m-63" target="Drvu7nfmIAvdVMm34D0m-70">
          <mxGeometry relative="1" as="geometry">
            <mxPoint x="144" y="151" as="targetPoint" />
          </mxGeometry>
        </mxCell>
        <mxCell id="Drvu7nfmIAvdVMm34D0m-63" value="开始" style="rounded=1;whiteSpace=wrap;html=1;" vertex="1" parent="Drvu7nfmIAvdVMm34D0m-60">
          <mxGeometry x="84" y="51" width="128" height="46" as="geometry" />
        </mxCell>
        <mxCell id="Drvu7nfmIAvdVMm34D0m-70" value="配置网络环境模式" style="rounded=0;whiteSpace=wrap;html=1;" vertex="1" parent="Drvu7nfmIAvdVMm34D0m-60">
          <mxGeometry x="75" y="168" width="146" height="66" as="geometry" />
        </mxCell>
        <mxCell id="Drvu7nfmIAvdVMm34D0m-87" style="edgeStyle=orthogonalEdgeStyle;rounded=0;orthogonalLoop=1;jettySize=auto;html=1;entryX=0.5;entryY=0;entryDx=0;entryDy=0;" edge="1" parent="Drvu7nfmIAvdVMm34D0m-60" source="Drvu7nfmIAvdVMm34D0m-84" target="Drvu7nfmIAvdVMm34D0m-86">
          <mxGeometry relative="1" as="geometry">
            <mxPoint x="140" y="441" as="targetPoint" />
          </mxGeometry>
        </mxCell>
        <mxCell id="Drvu7nfmIAvdVMm34D0m-84" value="返回错误信息" style="rounded=0;whiteSpace=wrap;html=1;" vertex="1" parent="Drvu7nfmIAvdVMm34D0m-60">
          <mxGeometry x="75" y="277" width="146" height="66" as="geometry" />
        </mxCell>
        <mxCell id="Drvu7nfmIAvdVMm34D0m-86" value="结束" style="rounded=1;whiteSpace=wrap;html=1;" vertex="1" parent="Drvu7nfmIAvdVMm34D0m-60">
          <mxGeometry x="84" y="457" width="128" height="46" as="geometry" />
        </mxCell>
        <mxCell id="Drvu7nfmIAvdVMm34D0m-73" value="" style="edgeStyle=orthogonalEdgeStyle;rounded=0;orthogonalLoop=1;jettySize=auto;html=1;" edge="1" parent="Drvu7nfmIAvdVMm34D0m-56" source="Drvu7nfmIAvdVMm34D0m-70" target="Drvu7nfmIAvdVMm34D0m-72">
          <mxGeometry relative="1" as="geometry" />
        </mxCell>
        <mxCell id="Drvu7nfmIAvdVMm34D0m-94" style="edgeStyle=orthogonalEdgeStyle;rounded=0;orthogonalLoop=1;jettySize=auto;html=1;entryX=0;entryY=0.5;entryDx=0;entryDy=0;" edge="1" parent="Drvu7nfmIAvdVMm34D0m-56" source="Drvu7nfmIAvdVMm34D0m-74" target="Drvu7nfmIAvdVMm34D0m-84">
          <mxGeometry relative="1" as="geometry" />
        </mxCell>
        <mxCell id="Drvu7nfmIAvdVMm34D0m-95" value="错误" style="edgeLabel;html=1;align=center;verticalAlign=middle;resizable=0;points=[];" vertex="1" connectable="0" parent="Drvu7nfmIAvdVMm34D0m-94">
          <mxGeometry x="-0.2587" y="-1" relative="1" as="geometry">
            <mxPoint as="offset" />
          </mxGeometry>
        </mxCell>
        <mxCell id="Drvu7nfmIAvdVMm34D0m-136" style="edgeStyle=orthogonalEdgeStyle;rounded=0;orthogonalLoop=1;jettySize=auto;html=1;entryX=0;entryY=0.5;entryDx=0;entryDy=0;" edge="1" parent="Drvu7nfmIAvdVMm34D0m-56" source="Drvu7nfmIAvdVMm34D0m-101" target="Drvu7nfmIAvdVMm34D0m-106">
          <mxGeometry relative="1" as="geometry" />
        </mxCell>
        <mxCell id="Drvu7nfmIAvdVMm34D0m-137" style="edgeStyle=orthogonalEdgeStyle;rounded=0;orthogonalLoop=1;jettySize=auto;html=1;entryX=0;entryY=0.5;entryDx=0;entryDy=0;" edge="1" parent="Drvu7nfmIAvdVMm34D0m-56" source="Drvu7nfmIAvdVMm34D0m-106" target="Drvu7nfmIAvdVMm34D0m-134">
          <mxGeometry relative="1" as="geometry" />
        </mxCell>
        <mxCell id="Drvu7nfmIAvdVMm34D0m-145" style="edgeStyle=orthogonalEdgeStyle;rounded=0;orthogonalLoop=1;jettySize=auto;html=1;entryX=1;entryY=0.5;entryDx=0;entryDy=0;" edge="1" parent="Drvu7nfmIAvdVMm34D0m-56" source="Drvu7nfmIAvdVMm34D0m-142" target="Drvu7nfmIAvdVMm34D0m-144">
          <mxGeometry relative="1" as="geometry" />
        </mxCell>
        <mxCell id="Drvu7nfmIAvdVMm34D0m-146" value="是" style="edgeLabel;html=1;align=center;verticalAlign=middle;resizable=0;points=[];" vertex="1" connectable="0" parent="Drvu7nfmIAvdVMm34D0m-145">
          <mxGeometry x="-0.0849" y="-1" relative="1" as="geometry">
            <mxPoint as="offset" />
          </mxGeometry>
        </mxCell>
        <mxCell id="Drvu7nfmIAvdVMm34D0m-147" style="edgeStyle=orthogonalEdgeStyle;rounded=0;orthogonalLoop=1;jettySize=auto;html=1;entryX=1;entryY=0.5;entryDx=0;entryDy=0;" edge="1" parent="Drvu7nfmIAvdVMm34D0m-56" source="Drvu7nfmIAvdVMm34D0m-142" target="Drvu7nfmIAvdVMm34D0m-149">
          <mxGeometry relative="1" as="geometry">
            <mxPoint x="420" y="1085" as="targetPoint" />
            <Array as="points">
              <mxPoint x="420" y="1107" />
            </Array>
          </mxGeometry>
        </mxCell>
        <mxCell id="Drvu7nfmIAvdVMm34D0m-151" value="否" style="edgeLabel;html=1;align=center;verticalAlign=middle;resizable=0;points=[];" vertex="1" connectable="0" parent="Drvu7nfmIAvdVMm34D0m-147">
          <mxGeometry x="-0.638" y="-1" relative="1" as="geometry">
            <mxPoint as="offset" />
          </mxGeometry>
        </mxCell>
      </root>
    </mxGraphModel>
  </diagram>
</mxfile>
